<mxfile host="app.diagrams.net" agent="Mozilla/5.0 (Macintosh; Intel Mac OS X 10_15_7) AppleWebKit/605.1.15 (KHTML, like Gecko) Version/17.5 Safari/605.1.15" version="26.2.8">
  <diagram name="第 1 页" id="J71U_AwAPMH4ove4iUE9">
    <mxGraphModel dx="1680" dy="949" grid="1" gridSize="10" guides="1" tooltips="1" connect="1" arrows="1" fold="1" page="1" pageScale="1" pageWidth="827" pageHeight="1169" math="0" shadow="0">
      <root>
        <mxCell id="0" />
        <mxCell id="1" parent="0" />
        <mxCell id="rar5chOXDsYoySxI1BEg-3" value="&lt;font style=&quot;font-size: 16px;&quot;&gt;192.168.100.0/24&lt;/font&gt;" style="text;html=1;align=center;verticalAlign=middle;whiteSpace=wrap;rounded=0;" vertex="1" parent="1">
          <mxGeometry x="870" y="1115" width="140" height="34" as="geometry" />
        </mxCell>
        <mxCell id="rar5chOXDsYoySxI1BEg-4" value="&lt;font size=&quot;3&quot;&gt;edge-node-1&lt;/font&gt;" style="image;sketch=0;aspect=fixed;html=1;points=[];align=center;fontSize=12;image=img/lib/mscae/Virtual_Machine_2.svg;" vertex="1" parent="1">
          <mxGeometry x="720" y="1230" width="86.96" height="80" as="geometry" />
        </mxCell>
        <mxCell id="rar5chOXDsYoySxI1BEg-5" value="&lt;font size=&quot;3&quot;&gt;edge-node-2&lt;/font&gt;" style="image;sketch=0;aspect=fixed;html=1;points=[];align=center;fontSize=12;image=img/lib/mscae/Virtual_Machine_2.svg;" vertex="1" parent="1">
          <mxGeometry x="840" y="1230" width="86.96" height="80" as="geometry" />
        </mxCell>
        <mxCell id="rar5chOXDsYoySxI1BEg-6" value="" style="endArrow=none;html=1;rounded=0;entryX=0.25;entryY=1;entryDx=0;entryDy=0;" edge="1" parent="1" source="rar5chOXDsYoySxI1BEg-4" target="rar5chOXDsYoySxI1BEg-33">
          <mxGeometry width="50" height="50" relative="1" as="geometry">
            <mxPoint x="1040" y="1210" as="sourcePoint" />
            <mxPoint x="806.1191578947369" y="1198" as="targetPoint" />
          </mxGeometry>
        </mxCell>
        <mxCell id="rar5chOXDsYoySxI1BEg-7" value="" style="endArrow=none;html=1;rounded=0;" edge="1" parent="1" source="rar5chOXDsYoySxI1BEg-5" target="rar5chOXDsYoySxI1BEg-33">
          <mxGeometry width="50" height="50" relative="1" as="geometry">
            <mxPoint x="616" y="1250" as="sourcePoint" />
            <mxPoint x="835.1717894736844" y="1198" as="targetPoint" />
          </mxGeometry>
        </mxCell>
        <mxCell id="rar5chOXDsYoySxI1BEg-8" value="&lt;font size=&quot;3&quot;&gt;cloud-node&lt;/font&gt;" style="image;sketch=0;aspect=fixed;html=1;points=[];align=center;fontSize=12;image=img/lib/mscae/Virtual_Machine_2.svg;" vertex="1" parent="1">
          <mxGeometry x="1392" y="1231" width="86.96" height="80" as="geometry" />
        </mxCell>
        <mxCell id="rar5chOXDsYoySxI1BEg-10" value="&lt;font style=&quot;font-size: 16px;&quot;&gt;192.168.101.0/24&lt;/font&gt;" style="text;html=1;align=center;verticalAlign=middle;whiteSpace=wrap;rounded=0;" vertex="1" parent="1">
          <mxGeometry x="1186.96" y="1113" width="140" height="34" as="geometry" />
        </mxCell>
        <mxCell id="rar5chOXDsYoySxI1BEg-11" value="&lt;font size=&quot;3&quot;&gt;edge-node-3&lt;/font&gt;" style="image;sketch=0;aspect=fixed;html=1;points=[];align=center;fontSize=12;image=img/lib/mscae/Virtual_Machine_2.svg;" vertex="1" parent="1">
          <mxGeometry x="980" y="1231" width="86.96" height="80" as="geometry" />
        </mxCell>
        <mxCell id="rar5chOXDsYoySxI1BEg-12" value="&lt;span style=&quot;font-size: medium;&quot;&gt;edge-node-4&lt;/span&gt;" style="image;sketch=0;aspect=fixed;html=1;points=[];align=center;fontSize=12;image=img/lib/mscae/Virtual_Machine_2.svg;" vertex="1" parent="1">
          <mxGeometry x="1100" y="1231" width="86.96" height="80" as="geometry" />
        </mxCell>
        <mxCell id="rar5chOXDsYoySxI1BEg-13" value="" style="endArrow=none;html=1;rounded=0;" edge="1" parent="1" source="rar5chOXDsYoySxI1BEg-11" target="rar5chOXDsYoySxI1BEg-23">
          <mxGeometry width="50" height="50" relative="1" as="geometry">
            <mxPoint x="1536.52" y="1222" as="sourcePoint" />
            <mxPoint x="1104.2818750000001" y="1198" as="targetPoint" />
          </mxGeometry>
        </mxCell>
        <mxCell id="rar5chOXDsYoySxI1BEg-14" value="" style="endArrow=none;html=1;rounded=0;" edge="1" parent="1" source="rar5chOXDsYoySxI1BEg-12" target="rar5chOXDsYoySxI1BEg-23">
          <mxGeometry width="50" height="50" relative="1" as="geometry">
            <mxPoint x="1112.52" y="1262" as="sourcePoint" />
            <mxPoint x="1133.0318750000001" y="1198" as="targetPoint" />
          </mxGeometry>
        </mxCell>
        <mxCell id="rar5chOXDsYoySxI1BEg-19" value="&lt;font style=&quot;font-size: 16px;&quot;&gt;192.168.102.0/24&lt;/font&gt;" style="text;html=1;align=center;verticalAlign=middle;whiteSpace=wrap;rounded=0;" vertex="1" parent="1">
          <mxGeometry x="1473.48" y="1115" width="140" height="34" as="geometry" />
        </mxCell>
        <mxCell id="rar5chOXDsYoySxI1BEg-21" value="" style="endArrow=none;html=1;rounded=0;" edge="1" parent="1" source="rar5chOXDsYoySxI1BEg-8" target="rar5chOXDsYoySxI1BEg-35">
          <mxGeometry width="50" height="50" relative="1" as="geometry">
            <mxPoint x="1480.48" y="1039" as="sourcePoint" />
            <mxPoint x="1653.0938613861385" y="1197" as="targetPoint" />
          </mxGeometry>
        </mxCell>
        <mxCell id="rar5chOXDsYoySxI1BEg-23" value="" style="image;html=1;image=img/lib/clip_art/networking/Router_Icon_128x128.png" vertex="1" parent="1">
          <mxGeometry x="1106.96" y="1090" width="80" height="80" as="geometry" />
        </mxCell>
        <mxCell id="rar5chOXDsYoySxI1BEg-24" value="&lt;span style=&quot;font-size: medium;&quot;&gt;edge-node-5&lt;/span&gt;" style="image;sketch=0;aspect=fixed;html=1;points=[];align=center;fontSize=12;image=img/lib/mscae/Virtual_Machine_2.svg;" vertex="1" parent="1">
          <mxGeometry x="1220" y="1231" width="86.96" height="80" as="geometry" />
        </mxCell>
        <mxCell id="rar5chOXDsYoySxI1BEg-25" value="" style="endArrow=none;html=1;rounded=0;exitX=0.262;exitY=0.001;exitDx=0;exitDy=0;exitPerimeter=0;" edge="1" parent="1" source="rar5chOXDsYoySxI1BEg-24" target="rar5chOXDsYoySxI1BEg-23">
          <mxGeometry width="50" height="50" relative="1" as="geometry">
            <mxPoint x="1126" y="1252" as="sourcePoint" />
            <mxPoint x="1169.48" y="1194.714701028418" as="targetPoint" />
          </mxGeometry>
        </mxCell>
        <mxCell id="rar5chOXDsYoySxI1BEg-30" value="&lt;font style=&quot;font-size: 16px;&quot;&gt;192.168.28.0/24&lt;/font&gt;" style="text;html=1;align=center;verticalAlign=middle;whiteSpace=wrap;rounded=0;" vertex="1" parent="1">
          <mxGeometry x="1186.96" y="963" width="140" height="34" as="geometry" />
        </mxCell>
        <mxCell id="rar5chOXDsYoySxI1BEg-33" value="" style="image;html=1;image=img/lib/clip_art/networking/Router_Icon_128x128.png" vertex="1" parent="1">
          <mxGeometry x="790" y="1092" width="80" height="80" as="geometry" />
        </mxCell>
        <mxCell id="rar5chOXDsYoySxI1BEg-34" value="" style="image;html=1;image=img/lib/clip_art/networking/Router_Icon_128x128.png" vertex="1" parent="1">
          <mxGeometry x="1106.96" y="940" width="80" height="80" as="geometry" />
        </mxCell>
        <mxCell id="rar5chOXDsYoySxI1BEg-35" value="" style="image;html=1;image=img/lib/clip_art/networking/Router_Icon_128x128.png" vertex="1" parent="1">
          <mxGeometry x="1395.48" y="1092" width="80" height="80" as="geometry" />
        </mxCell>
        <mxCell id="rar5chOXDsYoySxI1BEg-36" value="" style="endArrow=none;html=1;rounded=0;exitX=1;exitY=0.25;exitDx=0;exitDy=0;entryX=0;entryY=1;entryDx=0;entryDy=0;" edge="1" parent="1" source="rar5chOXDsYoySxI1BEg-33" target="rar5chOXDsYoySxI1BEg-34">
          <mxGeometry width="50" height="50" relative="1" as="geometry">
            <mxPoint x="950" y="1520" as="sourcePoint" />
            <mxPoint x="1000" y="1470" as="targetPoint" />
          </mxGeometry>
        </mxCell>
        <mxCell id="rar5chOXDsYoySxI1BEg-37" value="" style="endArrow=none;html=1;rounded=0;" edge="1" parent="1" source="rar5chOXDsYoySxI1BEg-23" target="rar5chOXDsYoySxI1BEg-34">
          <mxGeometry width="50" height="50" relative="1" as="geometry">
            <mxPoint x="860" y="1102" as="sourcePoint" />
            <mxPoint x="1117" y="1005" as="targetPoint" />
          </mxGeometry>
        </mxCell>
        <mxCell id="rar5chOXDsYoySxI1BEg-38" value="" style="endArrow=none;html=1;rounded=0;entryX=1;entryY=1;entryDx=0;entryDy=0;" edge="1" parent="1" source="rar5chOXDsYoySxI1BEg-35" target="rar5chOXDsYoySxI1BEg-34">
          <mxGeometry width="50" height="50" relative="1" as="geometry">
            <mxPoint x="880" y="1122" as="sourcePoint" />
            <mxPoint x="1117" y="1030" as="targetPoint" />
          </mxGeometry>
        </mxCell>
      </root>
    </mxGraphModel>
  </diagram>
</mxfile>
